<mxfile host="app.diagrams.net" modified="2021-09-27T09:54:07.035Z" agent="5.0 (Windows NT 10.0; Win64; x64) AppleWebKit/537.36 (KHTML, like Gecko) Chrome/93.0.4577.82 Safari/537.36" etag="KkPlNaf75U7r5BmEPWcB" version="15.3.5" type="github">
  <diagram id="-mXcswNU1OS2-pYTiFRl" name="第 1 页">
    <mxGraphModel dx="1038" dy="547" grid="1" gridSize="10" guides="1" tooltips="1" connect="1" arrows="1" fold="1" page="1" pageScale="1" pageWidth="827" pageHeight="1169" math="0" shadow="0">
      <root>
        <mxCell id="0" />
        <mxCell id="1" parent="0" />
        <mxCell id="YXaBDV404x7Fgw6cYZhQ-3" value="" style="edgeStyle=none;curved=1;rounded=0;orthogonalLoop=1;jettySize=auto;html=1;endArrow=open;startSize=14;endSize=14;sourcePerimeterSpacing=8;targetPerimeterSpacing=8;" edge="1" parent="1" source="YXaBDV404x7Fgw6cYZhQ-1" target="YXaBDV404x7Fgw6cYZhQ-2">
          <mxGeometry relative="1" as="geometry" />
        </mxCell>
        <mxCell id="YXaBDV404x7Fgw6cYZhQ-6" value="" style="edgeStyle=none;curved=1;rounded=0;orthogonalLoop=1;jettySize=auto;html=1;endArrow=open;startSize=14;endSize=14;sourcePerimeterSpacing=8;targetPerimeterSpacing=8;" edge="1" parent="1" source="YXaBDV404x7Fgw6cYZhQ-1" target="YXaBDV404x7Fgw6cYZhQ-2">
          <mxGeometry relative="1" as="geometry" />
        </mxCell>
        <mxCell id="YXaBDV404x7Fgw6cYZhQ-1" value="乳腺癌数据采集服务器" style="whiteSpace=wrap;html=1;aspect=fixed;hachureGap=4;pointerEvents=0;fillColor=#1ba1e2;strokeColor=#006EAF;fontColor=#ffffff;" vertex="1" parent="1">
          <mxGeometry x="210" y="370" width="80" height="80" as="geometry" />
        </mxCell>
        <mxCell id="YXaBDV404x7Fgw6cYZhQ-5" value="" style="edgeStyle=none;curved=1;rounded=0;orthogonalLoop=1;jettySize=auto;html=1;endArrow=open;startSize=14;endSize=14;sourcePerimeterSpacing=8;targetPerimeterSpacing=8;" edge="1" parent="1" source="YXaBDV404x7Fgw6cYZhQ-2" target="YXaBDV404x7Fgw6cYZhQ-4">
          <mxGeometry relative="1" as="geometry" />
        </mxCell>
        <mxCell id="YXaBDV404x7Fgw6cYZhQ-2" value="院内前置机" style="whiteSpace=wrap;html=1;aspect=fixed;hachureGap=4;pointerEvents=0;fillColor=#1ba1e2;strokeColor=#006EAF;fontColor=#ffffff;" vertex="1" parent="1">
          <mxGeometry x="350" y="370" width="80" height="80" as="geometry" />
        </mxCell>
        <mxCell id="YXaBDV404x7Fgw6cYZhQ-4" value="国家端数据库" style="ellipse;whiteSpace=wrap;html=1;fontColor=#ffffff;strokeColor=#006EAF;fillColor=#1ba1e2;hachureGap=4;" vertex="1" parent="1">
          <mxGeometry x="510" y="380" width="120" height="60" as="geometry" />
        </mxCell>
        <mxCell id="YXaBDV404x7Fgw6cYZhQ-21" value="" style="edgeStyle=none;curved=1;rounded=0;orthogonalLoop=1;jettySize=auto;html=1;endArrow=open;startSize=14;endSize=14;sourcePerimeterSpacing=8;targetPerimeterSpacing=8;" edge="1" parent="1" source="YXaBDV404x7Fgw6cYZhQ-15" target="YXaBDV404x7Fgw6cYZhQ-1">
          <mxGeometry relative="1" as="geometry" />
        </mxCell>
        <mxCell id="YXaBDV404x7Fgw6cYZhQ-15" value="数据抽取" style="ellipse;whiteSpace=wrap;html=1;fontColor=#ffffff;strokeColor=#006EAF;fillColor=#1ba1e2;hachureGap=4;" vertex="1" parent="1">
          <mxGeometry x="359" y="190" width="100" height="60" as="geometry" />
        </mxCell>
        <mxCell id="YXaBDV404x7Fgw6cYZhQ-20" value="" style="edgeStyle=none;curved=1;rounded=0;orthogonalLoop=1;jettySize=auto;html=1;endArrow=open;startSize=14;endSize=14;sourcePerimeterSpacing=8;targetPerimeterSpacing=8;" edge="1" parent="1" source="YXaBDV404x7Fgw6cYZhQ-19" target="YXaBDV404x7Fgw6cYZhQ-15">
          <mxGeometry relative="1" as="geometry" />
        </mxCell>
        <mxCell id="YXaBDV404x7Fgw6cYZhQ-19" value="业务系统" style="whiteSpace=wrap;html=1;aspect=fixed;hachureGap=4;pointerEvents=0;fillColor=#1ba1e2;strokeColor=#006EAF;fontColor=#ffffff;" vertex="1" parent="1">
          <mxGeometry x="210" y="70" width="80" height="80" as="geometry" />
        </mxCell>
        <mxCell id="YXaBDV404x7Fgw6cYZhQ-23" value="1" style="text;html=1;resizable=0;autosize=1;align=center;verticalAlign=middle;points=[];fillColor=none;strokeColor=none;rounded=0;hachureGap=4;pointerEvents=0;" vertex="1" parent="1">
          <mxGeometry x="240" y="10" width="20" height="20" as="geometry" />
        </mxCell>
        <mxCell id="YXaBDV404x7Fgw6cYZhQ-24" value="业务处理方式" style="text;html=1;resizable=0;autosize=1;align=center;verticalAlign=middle;points=[];fillColor=none;strokeColor=none;rounded=0;hachureGap=4;pointerEvents=0;" vertex="1" parent="1">
          <mxGeometry x="369" y="10" width="90" height="20" as="geometry" />
        </mxCell>
      </root>
    </mxGraphModel>
  </diagram>
</mxfile>
